<svg xmlns="http://www.w3.org/2000/svg" viewBox="0 0 512 512">
  <defs>
    <linearGradient id="bg" x1="64" y1="56" x2="438" y2="456" gradientUnits="userSpaceOnUse">
      <stop offset="0" stop-color="#ea6a2a"/>
      <stop offset="1" stop-color="#136f63"/>
    </linearGradient>
    <linearGradient id="sheet" x1="110" y1="104" x2="392" y2="392" gradientUnits="userSpaceOnUse">
      <stop offset="0" stop-color="#fff7eb"/>
      <stop offset="1" stop-color="#fff1d8"/>
    </linearGradient>
  </defs>
  <rect x="32" y="32" width="448" height="448" rx="120" fill="url(#bg)"/>
  <rect x="110" y="92" width="292" height="328" rx="44" fill="url(#sheet)"/>
  <rect x="152" y="164" width="170" height="24" rx="12" fill="#f2c77f"/>
  <rect x="152" y="218" width="208" height="18" rx="9" fill="#d4dbe5"/>
  <rect x="152" y="256" width="184" height="18" rx="9" fill="#d4dbe5"/>
  <rect x="152" y="294" width="144" height="18" rx="9" fill="#d4dbe5"/>
  <path d="M328 336c28.719 0 52-23.281 52-52s-23.281-52-52-52-52 23.281-52 52 23.281 52 52 52Z" fill="#136f63"/>
  <path d="M224.516 139.648h34.25v89.875h-30.281V172.21l-19.031 13.469-14.656-21.516 29.718-24.515Z" fill="#ea6a2a"/>
  <path d="m321.891 275.242 16.094 15.453 24.422-28.735" fill="none" stroke="#fff7eb" stroke-linecap="round" stroke-linejoin="round" stroke-width="14"/>
</svg>
